<svg width="534" height="110" viewBox="0 0 534 110" fill="none" xmlns="http://www.w3.org/2000/svg">
<path d="M51.625 43.5625H40.3125V35.0938H51.625C53.1667 35.0938 54.4167 34.8333 55.375 34.3125C56.3333 33.7917 57.0312 33.0729 57.4688 32.1562C57.9271 31.2188 58.1562 30.1667 58.1562 29C58.1562 27.75 57.9271 26.5938 57.4688 25.5312C57.0312 24.4688 56.3333 23.6146 55.375 22.9688C54.4167 22.3021 53.1667 21.9688 51.625 21.9688H44.4375V59H33.4688V13.5H51.625C55.2708 13.5 58.4062 14.1667 61.0312 15.5C63.6771 16.8333 65.7083 18.6667 67.125 21C68.5417 23.3125 69.25 25.9583 69.25 28.9375C69.25 31.875 68.5417 34.4375 67.125 36.625C65.7083 38.8125 63.6771 40.5208 61.0312 41.75C58.4062 42.9583 55.2708 43.5625 51.625 43.5625ZM75.9562 13.5H93.8625C97.3625 13.5 100.404 14.0208 102.987 15.0625C105.571 16.1042 107.56 17.6458 108.956 19.6875C110.373 21.7292 111.081 24.25 111.081 27.25C111.081 29.8542 110.675 32.0312 109.862 33.7812C109.05 35.5312 107.915 36.9792 106.456 38.125C105.019 39.25 103.342 40.1771 101.425 40.9062L97.8312 42.9375H82.8L82.7375 34.4688H93.8625C95.2583 34.4688 96.4146 34.2188 97.3312 33.7188C98.2479 33.2188 98.9354 32.5104 99.3937 31.5938C99.8729 30.6562 100.112 29.5417 100.112 28.25C100.112 26.9375 99.8729 25.8125 99.3937 24.875C98.9146 23.9375 98.2062 23.2188 97.2687 22.7188C96.3521 22.2188 95.2167 21.9688 93.8625 21.9688H86.925V59H75.9562V13.5ZM100.862 59L90.8 38.875L102.425 38.8125L112.612 58.5312V59H100.862ZM157.006 35.3438V37.1875C157.006 40.6667 156.517 43.7917 155.537 46.5625C154.579 49.3125 153.215 51.6667 151.444 53.625C149.673 55.5625 147.579 57.0521 145.162 58.0938C142.746 59.1146 140.079 59.625 137.162 59.625C134.225 59.625 131.537 59.1146 129.1 58.0938C126.683 57.0521 124.579 55.5625 122.787 53.625C121.017 51.6667 119.642 49.3125 118.662 46.5625C117.704 43.7917 117.225 40.6667 117.225 37.1875V35.3438C117.225 31.8646 117.704 28.7396 118.662 25.9688C119.642 23.1979 121.006 20.8438 122.756 18.9062C124.527 16.9479 126.621 15.4583 129.037 14.4375C131.475 13.3958 134.162 12.875 137.1 12.875C140.017 12.875 142.683 13.3958 145.1 14.4375C147.537 15.4583 149.642 16.9479 151.412 18.9062C153.183 20.8438 154.558 23.1979 155.537 25.9688C156.517 28.7396 157.006 31.8646 157.006 35.3438ZM145.881 37.1875V35.2812C145.881 33.0312 145.683 31.0521 145.287 29.3438C144.912 27.6146 144.35 26.1667 143.6 25C142.85 23.8333 141.923 22.9583 140.819 22.375C139.735 21.7708 138.496 21.4688 137.1 21.4688C135.642 21.4688 134.371 21.7708 133.287 22.375C132.204 22.9583 131.298 23.8333 130.569 25C129.84 26.1667 129.287 27.6146 128.912 29.3438C128.558 31.0521 128.381 33.0312 128.381 35.2812V37.1875C128.381 39.4167 128.558 41.3958 128.912 43.125C129.287 44.8333 129.84 46.2812 130.569 47.4688C131.319 48.6562 132.235 49.5521 133.319 50.1562C134.423 50.7604 135.704 51.0625 137.162 51.0625C138.558 51.0625 139.798 50.7604 140.881 50.1562C141.965 49.5521 142.871 48.6562 143.6 47.4688C144.35 46.2812 144.912 44.8333 145.287 43.125C145.683 41.3958 145.881 39.4167 145.881 37.1875ZM181.65 43.5625H170.337V35.0938H181.65C183.192 35.0938 184.442 34.8333 185.4 34.3125C186.358 33.7917 187.056 33.0729 187.494 32.1562C187.952 31.2188 188.181 30.1667 188.181 29C188.181 27.75 187.952 26.5938 187.494 25.5312C187.056 24.4688 186.358 23.6146 185.4 22.9688C184.442 22.3021 183.192 21.9688 181.65 21.9688H174.462V59H163.494V13.5H181.65C185.296 13.5 188.431 14.1667 191.056 15.5C193.702 16.8333 195.733 18.6667 197.15 21C198.567 23.3125 199.275 25.9583 199.275 28.9375C199.275 31.875 198.567 34.4375 197.15 36.625C195.733 38.8125 193.702 40.5208 191.056 41.75C188.431 42.9583 185.296 43.5625 181.65 43.5625ZM237.294 50.5625V59H213.044V50.5625H237.294ZM216.95 13.5V59H205.981V13.5H216.95ZM234.169 31.5625V39.7188H213.044V31.5625H234.169ZM237.387 13.5V21.9688H213.044V13.5H237.387ZM272.656 50.5625V59H249.656V50.5625H272.656ZM253.562 13.5V59H242.594V13.5H253.562ZM325.475 31.5625V40H302.131V31.5625H325.475ZM305.788 13.5V59H294.819V13.5H305.788ZM332.85 13.5V59H321.913V13.5H332.85ZM371.931 50.5625V59H347.681V50.5625H371.931ZM351.587 13.5V59H340.619V13.5H351.587ZM368.806 31.5625V39.7188H347.681V31.5625H368.806ZM372.025 13.5V21.9688H347.681V13.5H372.025ZM396.513 23.0625L385.419 59H373.638L390.356 13.5H397.825L396.513 23.0625ZM405.7 59L394.575 23.0625L393.138 13.5H400.7L417.513 59H405.7ZM405.263 42.0312V50.5H381.919V42.0312H405.263ZM451.719 50.5625V59H428.719V50.5625H451.719ZM432.625 13.5V59H421.656V13.5H432.625ZM472.737 13.5V59H461.769V13.5H472.737ZM486.425 13.5V21.9688H448.394V13.5H486.425ZM522.538 31.5625V40H499.194V31.5625H522.538ZM502.85 13.5V59H491.881V13.5H502.85ZM529.913 13.5V59H518.975V13.5H529.913Z" fill="#020202"/>
<path d="M40.3418 94.6357H34.6436V92.3359H40.3418C41.4453 92.3359 42.3389 92.1602 43.0225 91.8086C43.7061 91.457 44.2041 90.9688 44.5166 90.3438C44.8389 89.7188 45 89.0059 45 88.2051C45 87.4727 44.8389 86.7842 44.5166 86.1396C44.2041 85.4951 43.7061 84.9775 43.0225 84.5869C42.3389 84.1865 41.4453 83.9863 40.3418 83.9863H35.3027V103H32.4756V81.6719H40.3418C41.9531 81.6719 43.3154 81.9502 44.4287 82.5068C45.542 83.0635 46.3867 83.835 46.9629 84.8213C47.5391 85.7979 47.8271 86.916 47.8271 88.1758C47.8271 89.543 47.5391 90.71 46.9629 91.6768C46.3867 92.6436 45.542 93.3809 44.4287 93.8887C43.3154 94.3867 41.9531 94.6357 40.3418 94.6357ZM66.3754 83.5615L59.3148 103H56.4291L64.559 81.6719H66.4193L66.3754 83.5615ZM72.2934 103L65.2182 83.5615L65.1742 81.6719H67.0346L75.1938 103H72.2934ZM71.9271 95.1045V97.4189H59.9447V95.1045H71.9271ZM93.1268 81.6719V103H90.3436V81.6719H93.1268ZM99.9822 81.6719V83.9863H83.5027V81.6719H99.9822ZM115.279 81.6719V103H112.451V81.6719H115.279ZM143.07 100.7V103H131.776V100.7H143.07ZM132.347 81.6719V103H129.52V81.6719H132.347ZM141.576 90.8418V93.1416H131.776V90.8418H141.576ZM142.923 81.6719V83.9863H131.776V81.6719H142.923ZM172.077 81.6719V103H169.235L158.498 86.5498V103H155.671V81.6719H158.498L169.279 98.166V81.6719H172.077ZM193.628 81.6719V103H190.845V81.6719H193.628ZM200.484 81.6719V83.9863H184.004V81.6719H200.484ZM242.253 100.7V103H230.959V100.7H242.253ZM231.53 81.6719V103H228.703V81.6719H231.53ZM240.759 90.8418V93.1416H230.959V90.8418H240.759ZM242.107 81.6719V83.9863H230.959V81.6719H242.107ZM271.26 81.6719V103H268.419L257.681 86.5498V103H254.854V81.6719H257.681L268.463 98.166V81.6719H271.26ZM301.132 92.3799V100.188C300.868 100.578 300.448 101.018 299.872 101.506C299.296 101.984 298.5 102.404 297.484 102.766C296.479 103.117 295.18 103.293 293.588 103.293C292.289 103.293 291.093 103.068 289.999 102.619C288.915 102.16 287.973 101.496 287.172 100.627C286.381 99.748 285.766 98.6836 285.326 97.4336C284.896 96.1738 284.682 94.748 284.682 93.1562V91.501C284.682 89.9092 284.867 88.4883 285.238 87.2383C285.619 85.9883 286.176 84.9287 286.908 84.0596C287.641 83.1807 288.539 82.5166 289.604 82.0674C290.668 81.6084 291.889 81.3789 293.266 81.3789C294.896 81.3789 296.259 81.6621 297.353 82.2285C298.456 82.7852 299.315 83.5566 299.931 84.543C300.556 85.5293 300.956 86.6523 301.132 87.9121H298.305C298.178 87.1406 297.924 86.4375 297.543 85.8027C297.172 85.168 296.64 84.6602 295.946 84.2793C295.253 83.8887 294.359 83.6934 293.266 83.6934C292.279 83.6934 291.425 83.874 290.702 84.2354C289.979 84.5967 289.384 85.1143 288.915 85.7881C288.446 86.4619 288.095 87.2773 287.86 88.2344C287.636 89.1914 287.523 90.2705 287.523 91.4717V93.1562C287.523 94.3867 287.665 95.4854 287.948 96.4521C288.241 97.4189 288.656 98.2441 289.193 98.9277C289.73 99.6016 290.37 100.114 291.112 100.466C291.864 100.817 292.694 100.993 293.603 100.993C294.608 100.993 295.424 100.91 296.049 100.744C296.674 100.568 297.162 100.363 297.514 100.129C297.865 99.8848 298.134 99.6553 298.319 99.4404V94.665H293.383V92.3799H301.132ZM322.815 83.5615L315.754 103H312.869L320.998 81.6719H322.859L322.815 83.5615ZM328.733 103L321.658 83.5615L321.614 81.6719H323.474L331.633 103H328.733ZM328.367 95.1045V97.4189H316.384V95.1045H328.367ZM359.176 92.3799V100.188C358.912 100.578 358.492 101.018 357.916 101.506C357.34 101.984 356.544 102.404 355.528 102.766C354.522 103.117 353.223 103.293 351.632 103.293C350.333 103.293 349.137 103.068 348.043 102.619C346.959 102.16 346.016 101.496 345.216 100.627C344.425 99.748 343.809 98.6836 343.37 97.4336C342.94 96.1738 342.725 94.748 342.725 93.1562V91.501C342.725 89.9092 342.911 88.4883 343.282 87.2383C343.663 85.9883 344.22 84.9287 344.952 84.0596C345.684 83.1807 346.583 82.5166 347.647 82.0674C348.712 81.6084 349.932 81.3789 351.309 81.3789C352.94 81.3789 354.303 81.6621 355.396 82.2285C356.5 82.7852 357.359 83.5566 357.974 84.543C358.599 85.5293 359 86.6523 359.176 87.9121H356.348C356.221 87.1406 355.968 86.4375 355.587 85.8027C355.216 85.168 354.683 84.6602 353.99 84.2793C353.297 83.8887 352.403 83.6934 351.309 83.6934C350.323 83.6934 349.469 83.874 348.746 84.2354C348.023 84.5967 347.428 85.1143 346.959 85.7881C346.49 86.4619 346.138 87.2773 345.904 88.2344C345.68 89.1914 345.567 90.2705 345.567 91.4717V93.1562C345.567 94.3867 345.709 95.4854 345.992 96.4521C346.285 97.4189 346.7 98.2441 347.237 98.9277C347.774 99.6016 348.414 100.114 349.156 100.466C349.908 100.817 350.738 100.993 351.646 100.993C352.652 100.993 353.468 100.91 354.093 100.744C354.718 100.568 355.206 100.363 355.557 100.129C355.909 99.8848 356.178 99.6553 356.363 99.4404V94.665H351.427V92.3799H359.176ZM386.513 100.7V103H375.219V100.7H386.513ZM375.79 81.6719V103H372.963V81.6719H375.79ZM385.019 90.8418V93.1416H375.219V90.8418H385.019ZM386.366 81.6719V83.9863H375.219V81.6719H386.366ZM400.007 81.6719H402.747L409.734 99.0596L416.707 81.6719H419.461L410.789 103H408.65L400.007 81.6719ZM399.114 81.6719H401.531L401.926 94.6797V103H399.114V81.6719ZM417.922 81.6719H420.339V103H417.527V94.6797L417.922 81.6719ZM447.955 100.7V103H436.661V100.7H447.955ZM437.232 81.6719V103H434.405V81.6719H437.232ZM446.461 90.8418V93.1416H436.661V90.8418H446.461ZM447.809 81.6719V83.9863H436.661V81.6719H447.809ZM476.962 81.6719V103H474.121L463.383 86.5498V103H460.556V81.6719H463.383L474.164 98.166V81.6719H476.962ZM498.513 81.6719V103H495.73V81.6719H498.513ZM505.369 81.6719V83.9863H488.889V81.6719H505.369ZM528.766 97.6094C528.766 97.1113 528.688 96.6719 528.531 96.291C528.385 95.9004 528.121 95.5488 527.74 95.2363C527.369 94.9238 526.852 94.626 526.188 94.3428C525.533 94.0596 524.703 93.7715 523.697 93.4785C522.643 93.166 521.691 92.8193 520.841 92.4385C519.991 92.0479 519.264 91.6035 518.658 91.1055C518.053 90.6074 517.589 90.0361 517.267 89.3916C516.945 88.7471 516.783 88.0098 516.783 87.1797C516.783 86.3496 516.954 85.583 517.296 84.8799C517.638 84.1768 518.126 83.5664 518.761 83.0488C519.405 82.5215 520.172 82.1113 521.061 81.8184C521.949 81.5254 522.941 81.3789 524.034 81.3789C525.636 81.3789 526.993 81.6865 528.107 82.3018C529.23 82.9072 530.084 83.7031 530.67 84.6895C531.256 85.666 531.549 86.7109 531.549 87.8242H528.737C528.737 87.0234 528.566 86.3154 528.224 85.7002C527.882 85.0752 527.364 84.5869 526.671 84.2354C525.978 83.874 525.099 83.6934 524.034 83.6934C523.029 83.6934 522.198 83.8447 521.544 84.1475C520.89 84.4502 520.402 84.8604 520.079 85.3779C519.767 85.8955 519.611 86.4863 519.611 87.1504C519.611 87.5996 519.703 88.0098 519.889 88.3809C520.084 88.7422 520.382 89.0791 520.782 89.3916C521.193 89.7041 521.71 89.9922 522.335 90.2559C522.97 90.5195 523.727 90.7734 524.606 91.0176C525.817 91.3594 526.862 91.7402 527.74 92.1602C528.619 92.5801 529.342 93.0537 529.908 93.5811C530.485 94.0986 530.909 94.6895 531.183 95.3535C531.466 96.0078 531.608 96.75 531.608 97.5801C531.608 98.4492 531.432 99.2354 531.08 99.9385C530.729 100.642 530.226 101.242 529.572 101.74C528.917 102.238 528.131 102.624 527.213 102.897C526.305 103.161 525.289 103.293 524.166 103.293C523.18 103.293 522.208 103.156 521.251 102.883C520.304 102.609 519.44 102.199 518.658 101.652C517.887 101.105 517.267 100.432 516.798 99.6309C516.339 98.8203 516.11 97.8828 516.11 96.8184H518.922C518.922 97.5508 519.064 98.1807 519.347 98.708C519.63 99.2256 520.016 99.6553 520.504 99.9971C521.002 100.339 521.564 100.593 522.189 100.759C522.823 100.915 523.483 100.993 524.166 100.993C525.153 100.993 525.988 100.856 526.671 100.583C527.355 100.31 527.872 99.9189 528.224 99.4111C528.585 98.9033 528.766 98.3027 528.766 97.6094Z" fill="#020202"/>
<rect x="24.0701" y="13.5693" width="10.9502" height="47.2793" transform="rotate(30 24.0701 13.5693)" fill="url(#paint0_linear_102_190)"/>
<defs>
<linearGradient id="paint0_linear_102_190" x1="28.873" y1="13.104" x2="29.0881" y2="61.3986" gradientUnits="userSpaceOnUse">
    <stop stop-color="#76FBF4"/>
    <stop offset="1" stop-color="#D0E657"/>
</linearGradient>
</defs>
</svg>
